<?xml version="1.0" encoding="utf-8"?>
<!-- Generator: Adobe Illustrator 19.0.0, SVG Export Plug-In . SVG Version: 6.00 Build 0)  -->
<svg version="1.1" xmlns="http://www.w3.org/2000/svg" xmlns:xlink="http://www.w3.org/1999/xlink" x="0px" y="0px"
	 viewBox="0 0 428.3 140" style="enable-background:new 0 0 428.3 140;" xml:space="preserve">
<style type="text/css">
	.st0{display:none;}
	.st1{display:inline;fill:#181515;}
	.st2{fill:#FFFFFF;}
	.st3{fill:none;}
	.st4{fill:#F1F1F2;}
	.st5{font-family:'Helvetica';}
	.st6{font-size:26px;}
</style>
<g id="Calque_2" class="st0">
	<rect id="XMLID_67_" x="0.1" y="-1.5" class="st1" width="428" height="215.4"/>
</g>
<g id="Calque_1">
	<path class="st2" d="M15.6,44.3C16.4,27.9,27.7,20.4,39.7,21c8,0.4,17.4,4.7,22.5,15.5l4.1,0.2l-2.8-24.8l-2.6-0.1l-2.7,2.9
		C52.1,11.2,45.4,9.3,38.6,9c-13.3-0.7-21.5,4-26.5,8.9C4.7,25.1,0.6,34,0.1,45.4c-0.5,10.9,2.1,21.5,9.4,30c3.9,4.6,9,8,15.8,9.8
		c2-4.5,3.2-9.3,3.7-14.3C20,66.4,15,56.5,15.6,44.3z"/>
	<path class="st2" d="M40.9,82.4c-3.2-0.5-6-1.6-8.5-3.1c-0.8,4.9-2.4,9.6-4.7,14c2.6,0.9,5.5,1.6,8.7,1.9
		c15,1.9,26.8-4.5,36.4-17.5l-8-5.9C55.8,78.8,51,84.1,40.9,82.4z"/>
	<path class="st2" d="M123.9,75c-1,0-1.5-0.3-2-0.9c-3.4-3.6-0.3-24.7-7.3-32.2c-0.8-0.8-1.7-1.6-2.8-2.3c-2.8,3-5.4,6-8.7,8.3
		c1.1,1.1,1.8,2.5,1.9,4.3c-11.7,0.9-19.5,2.9-24,7.6c-2.6,2.8-4.1,6.5-4.1,10.5c0,9.3,5.4,15.5,15.6,15.5c6.1,0,11.4-1.9,17.2-4.8
		c1.2,2.3,4.8,3.8,8.2,3.8s6.9-0.8,10.4-3l-1.9-7.2C125.3,74.8,124.5,75,123.9,75z M89.1,73.6c0,0-5-13.8,17.9-14.9l1.7,13.3
		C107,75.7,93,77.7,89.1,73.6z"/>
	<path class="st2" d="M83,50.1c1.5-4.2,5.6-6.6,11.3-7.2c2.7-0.2,4.8,0.3,6.2,1.4c3.1-2.6,5.4-5.8,7.9-9c-3-1.5-7-2.3-12.6-1.8
		c-9.7,0.9-15.7,4.1-19.2,6.2c1.6,3.8,2.5,6.2,4,11L83,50.1z"/>
	<path class="st2" d="M149.4,76.1V65.5c-4.2-1.5-8.4-3.1-13.2-3.3v14c0,2.7-3.9,4.9-6.7,5.4v2.6h26.8v-2.6
		C153.7,81.4,149.4,78.6,149.4,76.1z"/>
	<path class="st2" d="M161.8,28.4c-5.1,0.7-9.3,3.4-14.2,10.7l-1.2-8.6l-2.6,0.4c-3.2,4.7-7.6,8.7-12.9,12.8l0.4,2.7
		c2.8-0.3,4.3,1.6,4.7,4.4l0.9,6.7c4.7-0.5,9.2,0.5,13.5,1.4l-1.3-9c3.4-4.7,6.7-8.1,10.8-8.7c2.2-0.3,4.4,0.2,7.2,2.9l2.4-1.2
		l-5.3-14.7C163.5,28.3,162.7,28.3,161.8,28.4z"/>
	<path class="st2" d="M175.1,22.3l4.2,47c4.6-0.4,8.8-2.1,13.1-4l-5.5-62l-2.5,0.2c-3.4,4.2-8.5,8.8-13.7,12.1l0.3,2.9
		C173.3,18.3,174.8,19.3,175.1,22.3z"/>
	<path class="st2" d="M190.7,75.4v-4.5c-4.5,1.6-8.8,2.8-13.4,2.8V76c0,3.4-3.9,5.1-6.9,5.6v2.6h27.2v-2.5
		C194.9,81.1,190.7,79.5,190.7,75.4z"/>
	<path class="st2" d="M207.1,17.1l2.1,0.2c0.6,0.1,1.1-0.2,1.5-0.6c2.8-2.9,4.7-4.2,8.6-3.8l22.5,2.3c0.1,0,0.1,0.1,0,0.1l-2.7,3.3
		c7.6-1.2,15.2-2.7,22.7-4.5l4.2-5.2c0,0,0,0,0,0l0.4-3.5c0,0,0-0.1-0.1-0.1L213.1,0c0,0-0.1,0-0.1,0L207.1,17.1
		C207,17.1,207.1,17.1,207.1,17.1z"/>
	<path class="st2" d="M259.8,65.9c-3.1,4.2-5,6-12,6h-24.2c-0.1,0-0.1-0.1-0.1-0.1l33.8-51.5c-7.4,2.5-14.8,4.8-22.2,6.7l-34.7,53.3
		c0,0,0,0,0,0V84c0,0,0,0.1,0.1,0.1l62.5-0.1c0,0,0.1,0,0.1-0.1l0-18c0,0,0-0.1-0.1-0.1H259.8z"/>
	<path class="st2" d="M277.8,55.8c-0.4-6.9,3.6-11.9,9.6-13c2.6-0.5,5.2,0.2,7.4,1.6c4.4-2.7,8.8-5.3,13.2-7.9
		c-4.9-5.7-12.3-8.9-21.7-7.2c-13.9,2.5-24.2,13.7-21.3,29.5c0.4,2.3,1.1,4.4,2,6.5c3.4-3.4,6.9-6.5,10.7-9.4
		C277.8,55.9,277.8,55.8,277.8,55.8z"/>
	<path class="st2" d="M308.8,40.8c-3.4,2.8-6.8,5.6-10.1,8.5c3,2.1,5.5,5.5,6.9,9.6l0,0c2.6,7.6-0.7,13.9-7,16.1
		c-6.3,2.2-13.4-2.6-16.6-10.2c-3.2,3.4-6.3,7.1-9.1,10.9c5.8,9,16.3,13.7,28,9.6c14.1-5,21.2-18.2,16.2-32.3
		C315.5,48.2,312.6,43.9,308.8,40.8z"/>
	<path class="st2" d="M371.2,82.5l3.9-22.3c1.2-6.6-0.2-12.6-4.6-16.4c-2.8,3.7-6.5,6.6-10.1,9.5c1.3,1.7,1.6,4,1.1,6.8l-3.4,19.4
		c-0.5,2.8-4.8,3.9-7.4,3.9l-0.5,2.8l26.3,4.6L377,88C375,87.2,370.8,84.9,371.2,82.5z"/>
	<path class="st2" d="M339.9,76.2V52.9c4.7-3.5,8.3-4.8,12-4.8c2.4,0,4.2,0.6,5.4,1.8c3.1-3.4,6.2-6.9,8.3-11.1
		c-2.4-1.5-5.3-2.3-8.9-2.3c-6.8,0-11.7,2.5-16.9,6.8v-6.8h-2.5c-4.6,5.1-10.9,8.9-14.5,10.9V50c2.6,0.1,3.9,1.9,3.9,4.5v20.8
		c0,3.3-0.8,5.5-3.9,6.1v2.7h23.8v-2.8C344,80.9,339.9,78.6,339.9,76.2z"/>
	<path class="st2" d="M394.8,65.7l33.1-7c-2.7-9.9-7.3-14.7-7.3-14.7c-2.4-2.5-6.3-6.5-14.3-7.3c-12.1-1.2-23.6,6.3-25.2,22.4
		c-0.4,4.5-0.6,23.5,18.8,26.5c1.6-3.8,3.3-7.5,5.1-11c-0.1,0-0.2,0-0.2,0C399.2,74,395.8,70.1,394.8,65.7z M404.9,46.2
		c3.6,0.4,5.7,2.5,7.5,6.4L394.5,56C394.8,50.9,398.5,45.5,404.9,46.2z"/>
	<path class="st2" d="M420.9,68.5c-2.9,4.2-7.2,8.9-13.4,9.8c-1,3.8-1.8,7.8-2.5,11.8c0.5,0,1.1-0.1,1.6-0.2
		c10.7-1.4,16.3-7.4,21.7-15.7L420.9,68.5z"/>
	<rect id="XMLID_66_" x="26.3" y="106.2" class="st3" width="375.7" height="33.8"/>
	<text id="XMLID_68_" transform="matrix(1 0 0 1 171.5158 124.8982)" class="st4 st5 st6">Le Film</text>
</g>
</svg>
